<svg width="1001" height="1000" viewBox="0 0 1001 1000" fill="none" xmlns="http://www.w3.org/2000/svg">
<g clip-path="url(#clip0_1401_521)">
<rect width="1000" height="1000" transform="translate(0.288086)" fill="#D0DBD7"/>
<path d="M205.754 965.766H240.171V1000.18H205.754V965.766Z" fill="black"/>
<path d="M171.957 931.32H206.374V965.738H171.957V931.32Z" fill="black"/>
<path d="M137.541 896.938H171.958V931.355H137.541V896.938Z" fill="black"/>
<path d="M103.422 862.5H137.84V896.917H103.422V862.5Z" fill="black"/>
<path d="M68.0404 965.875H102.458V1000.29H68.0404V965.875Z" fill="black"/>
<path d="M33.6225 931.438H68.0399V965.855H33.6225V931.438Z" fill="black"/>
<path d="M69.0074 828.094L103.425 828.094L103.425 862.511L69.0074 862.511L69.0074 828.094Z" fill="black"/>
<path d="M34.5904 828.094L69.0079 828.094L69.0079 862.511L34.5904 862.511L34.5904 828.094Z" fill="black"/>
<path d="M0.170563 862.539L34.588 862.539L34.588 896.957H0.170563L0.170563 862.539Z" fill="black"/>
<path d="M167.924 496.867H202.341V531.285H167.924V496.867Z" fill="black"/>
<path d="M133.506 462.469H167.924V496.886H133.506V462.469Z" fill="black"/>
<path d="M99.7092 428.023H134.127V462.441H99.7092V428.023Z" fill="black"/>
<path d="M65.2931 393.641H99.7106V428.058H65.2931V393.641Z" fill="black"/>
<path d="M31.175 359.203H65.5925V393.621H31.175V359.203Z" fill="black"/>
<path d="M30.256 634.648H64.6735V669.066H30.256V634.648Z" fill="black"/>
<path d="M-4.16195 600.25H30.2555V634.667H-4.16195V600.25Z" fill="black"/>
<path d="M133.459 600.211H167.877V634.628H133.459V600.211Z" fill="black"/>
<path d="M99.0421 565.781H133.46V600.199H99.0421V565.781Z" fill="black"/>
<path d="M64.6251 531.383H99.0426V565.8H64.6251V531.383Z" fill="black"/>
<path d="M30.2072 496.938H64.6246V531.355H30.2072V496.938Z" fill="black"/>
<path d="M-4.20784 462.555H30.2096V496.972H-4.20784V462.555Z" fill="black"/>
<path d="M236.759 669.133H271.176V703.55H236.759V669.133Z" fill="black"/>
<path d="M305.555 737.906H339.972V772.324H305.555V737.906Z" fill="black"/>
<path d="M271.157 703.508H305.574V737.925H271.157V703.508Z" fill="black"/>
<path d="M339.973 772.32H374.39V806.738H339.973V772.32Z" fill="black"/>
<path d="M202.341 703.5H236.759V737.917H202.341V703.5Z" fill="black"/>
<path d="M236.759 737.938H271.177V772.355H236.759V737.938Z" fill="black"/>
<path d="M271.156 772.312H305.573V806.73H271.156V772.312Z" fill="black"/>
<path d="M305.556 806.742H339.974V841.16H305.556V806.742Z" fill="black"/>
<path d="M339.991 841.125H374.408V875.542H339.991V841.125Z" fill="black"/>
<path d="M374.41 875.531H408.828V909.949H374.41V875.531Z" fill="black"/>
<path d="M408.829 909.977H443.246V944.394H408.829V909.977Z" fill="black"/>
<path d="M443.225 944.344H477.642V978.761H443.225V944.344Z" fill="black"/>
<path d="M477.624 978.773H512.042V1013.19H477.624V978.773Z" fill="black"/>
<path d="M408.797 841.18H443.214V875.597H408.797V841.18Z" fill="black"/>
<path d="M443.215 875.617H477.632V910.035H443.215V875.617Z" fill="black"/>
<path d="M477.61 909.992H512.028V944.41H477.61V909.992Z" fill="black"/>
<path d="M512.011 944.422H546.428V978.839H512.011V944.422Z" fill="black"/>
<path d="M546.446 978.805H580.864V1013.22H546.446V978.805Z" fill="black"/>
<path d="M374.388 806.742H408.805V841.16H374.388V806.742Z" fill="black"/>
<path d="M167.924 669.109H202.342V703.527H167.924V669.109Z" fill="black"/>
<path d="M202.341 634.688H236.759V669.105H202.341V634.688Z" fill="black"/>
<path d="M202.341 600.242H236.759V634.66H202.341V600.242Z" fill="black"/>
<path d="M202.341 565.859H236.759V600.277H202.341V565.859Z" fill="black"/>
<path d="M202.341 531.422H236.759V565.839H202.341V531.422Z" fill="black"/>
<path d="M99.092 669.062L99.092 703.48L64.6746 703.48L64.6746 669.062L99.092 669.062Z" fill="black"/>
<path d="M133.507 669.062L133.507 703.48L99.0896 703.48L99.0896 669.062L133.507 669.062Z" fill="black"/>
<path d="M167.925 669.062L167.925 703.48L133.508 703.48L133.508 669.062L167.925 669.062Z" fill="black"/>
<path d="M-3.24083 324.797L31.1767 324.797L31.1767 359.214L-3.24083 359.214L-3.24083 324.797Z" fill="black"/>
<path d="M304.394 138.445H339.232V173.283H304.394V138.445Z" fill="black"/>
<path d="M269.555 103.641H304.393V138.479H269.555V103.641Z" fill="black"/>
<path d="M235.345 68.7734H270.183V103.611H235.345V68.7734Z" fill="black"/>
<path d="M200.509 33.9688H235.346V68.8067H200.509V33.9688Z" fill="black"/>
<path d="M165.974 -0.890625H200.812V33.9473H165.974V-0.890625Z" fill="black"/>
<path d="M165.046 277.898H199.884V312.736H165.046V277.898Z" fill="black"/>
<path d="M130.206 243.094H165.044V277.932H130.206V243.094Z" fill="black"/>
<path d="M95.9957 208.227H130.834V243.065H95.9957V208.227Z" fill="black"/>
<path d="M61.1601 173.422H95.9981V208.26H61.1601V173.422Z" fill="black"/>
<path d="M26.6253 138.562H61.4632V173.4H26.6253V138.562Z" fill="black"/>
<path d="M269.507 243.07H304.345V277.908H269.507V243.07Z" fill="black"/>
<path d="M234.669 208.203H269.507V243.041H234.669V208.203Z" fill="black"/>
<path d="M199.83 173.398H234.668V208.236H199.83V173.398Z" fill="black"/>
<path d="M164.993 138.531H199.831V173.369H164.993V138.531Z" fill="black"/>
<path d="M130.158 103.727H164.996V138.565H130.158V103.727Z" fill="black"/>
<path d="M95.3193 68.8672H130.157V103.705H95.3193V68.8672Z" fill="black"/>
<path d="M374.069 312.82H408.907V347.658H374.069V312.82Z" fill="black"/>
<path d="M443.705 382.43H478.543V417.268H443.705V382.43Z" fill="black"/>
<path d="M408.887 347.609H443.725V382.447H408.887V347.609Z" fill="black"/>
<path d="M478.544 417.258H513.382V452.096H478.544V417.258Z" fill="black"/>
<path d="M339.231 347.617H374.069V382.455H339.231V347.617Z" fill="black"/>
<path d="M374.07 382.477H408.908V417.315H374.07V382.477Z" fill="black"/>
<path d="M408.887 417.273H443.725V452.111H408.887V417.273Z" fill="black"/>
<path d="M443.706 452.117H478.544V486.955H443.706V452.117Z" fill="black"/>
<path d="M478.562 486.914H513.4V521.752H478.562V486.914Z" fill="black"/>
<path d="M513.401 521.719H548.239V556.557H513.401V521.719Z" fill="black"/>
<path d="M548.24 556.578H583.078V591.416H548.24V556.578Z" fill="black"/>
<path d="M583.056 591.375H617.894V626.213H583.056V591.375Z" fill="black"/>
<path d="M617.876 626.219H652.713V661.057H617.876V626.219Z" fill="black"/>
<path d="M652.732 661.016H687.57V695.854H652.732V661.016Z" fill="black"/>
<path d="M548.21 486.938H583.048V521.775H548.21V486.938Z" fill="black"/>
<path d="M583.048 521.797H617.886V556.635H583.048V521.797Z" fill="black"/>
<path d="M617.865 556.594H652.703V591.432H617.865V556.594Z" fill="black"/>
<path d="M652.685 591.438H687.523V626.275H652.685V591.438Z" fill="black"/>
<path d="M687.541 626.234H722.378V661.072H687.541V626.234Z" fill="black"/>
<path d="M687.566 695.922H722.404V730.76H687.566V695.922Z" fill="black"/>
<path d="M722.404 730.781H757.242V765.619H722.404V730.781Z" fill="black"/>
<path d="M757.221 765.578H792.059V800.416H757.221V765.578Z" fill="black"/>
<path d="M792.04 800.422H826.878V835.26H792.04V800.422Z" fill="black"/>
<path d="M826.896 835.219H861.734V870.057H826.896V835.219Z" fill="black"/>
<path d="M861.689 870.109H896.527V904.947H861.689V870.109Z" fill="black"/>
<path d="M896.528 904.969H931.366V939.807H896.528V904.969Z" fill="black"/>
<path d="M931.345 939.766H966.182V974.604H931.345V939.766Z" fill="black"/>
<path d="M966.164 974.609H1001V1009.45H966.164V974.609Z" fill="black"/>
<path d="M722.377 661.148H757.215V695.986H722.377V661.148Z" fill="black"/>
<path d="M757.216 696.008H792.054V730.846H757.216V696.008Z" fill="black"/>
<path d="M792.033 730.805H826.87V765.643H792.033V730.805Z" fill="black"/>
<path d="M826.852 765.648H861.69V800.486H826.852V765.648Z" fill="black"/>
<path d="M861.709 800.445H896.547V835.283H861.709V800.445Z" fill="black"/>
<path d="M896.544 835.219H931.382V870.057H896.544V835.219Z" fill="black"/>
<path d="M931.382 870.078H966.22V904.916H931.382V870.078Z" fill="black"/>
<path d="M966.199 904.875H1001.04V939.713H966.199V904.875Z" fill="black"/>
<path d="M513.38 452.109H548.218V486.947H513.38V452.109Z" fill="black"/>
<path d="M304.393 312.781H339.231V347.619H304.393V312.781Z" fill="black"/>
<path d="M339.231 277.945H374.069V312.783H339.231V277.945Z" fill="black"/>
<path d="M339.231 243.078H374.069V277.916H339.231V243.078Z" fill="black"/>
<path d="M339.231 208.273H374.069V243.111H339.231V208.273Z" fill="black"/>
<path d="M339.231 173.414H374.069V208.252H339.231V173.414Z" fill="black"/>
<path d="M234.719 312.727L234.719 347.565L199.881 347.565L199.881 312.727L234.719 312.727Z" fill="black"/>
<path d="M269.554 312.727L269.554 347.565L234.716 347.565L234.716 312.727L269.554 312.727Z" fill="black"/>
<path d="M304.393 312.727L304.393 347.565L269.555 347.565L269.555 312.727L304.393 312.727Z" fill="black"/>
<path d="M26.623 33.9688H61.4609V68.8067H26.623V33.9688Z" fill="black"/>
<path d="M-7.58778 103.625L-7.58779 68.787L27.2502 68.787L27.2502 103.625L-7.58778 103.625Z" fill="black"/>
<path d="M-7.58778 138.438L-7.58779 103.6L27.2502 103.6L27.2502 138.437L-7.58778 138.438Z" fill="black"/>
<path d="M61.4579 -0.859375L96.2959 -0.859375L96.2959 33.9786L61.4579 33.9786L61.4579 -0.859375Z" fill="black"/>
<path d="M691.208 -0.804688H725.625V33.6128H691.208V-0.804688Z" fill="black"/>
<path d="M553.541 136.992H587.958V171.41H553.541V136.992Z" fill="black"/>
<path d="M519.123 102.594H553.54V137.011H519.123V102.594Z" fill="black"/>
<path d="M485.325 68.1484H519.742V102.566H485.325V68.1484Z" fill="black"/>
<path d="M450.91 33.7656H485.327V68.1831H450.91V33.7656Z" fill="black"/>
<path d="M416.792 -0.671875H451.209V33.7456H416.792V-0.671875Z" fill="black"/>
<path d="M656.743 102.547H691.161V136.964H656.743V102.547Z" fill="black"/>
<path d="M622.326 68.1172H656.744V102.535H622.326V68.1172Z" fill="black"/>
<path d="M587.908 33.7188H622.326V68.1362H587.908V33.7188Z" fill="black"/>
<path d="M553.491 -0.726562H587.909V33.6909H553.491V-0.726562Z" fill="black"/>
<path d="M760.044 171.461H794.461V205.878H760.044V171.461Z" fill="black"/>
<path d="M828.84 240.258H863.257V274.675H828.84V240.258Z" fill="black"/>
<path d="M794.44 205.844H828.858V240.261H794.44V205.844Z" fill="black"/>
<path d="M863.258 274.656H897.675V309.074H863.258V274.656Z" fill="black"/>
<path d="M725.626 205.828H760.043V240.246H725.626V205.828Z" fill="black"/>
<path d="M760.044 240.266H794.461V274.683H760.044V240.266Z" fill="black"/>
<path d="M794.44 274.641H828.858V309.058H794.44V274.641Z" fill="black"/>
<path d="M828.84 309.07H863.257V343.488H828.84V309.07Z" fill="black"/>
<path d="M863.275 343.453H897.693V377.871H863.275V343.453Z" fill="black"/>
<path d="M897.695 377.844H932.113V412.261H897.695V377.844Z" fill="black"/>
<path d="M932.113 412.281H966.531V446.699H932.113V412.281Z" fill="black"/>
<path d="M966.51 446.656H1000.93V481.074H966.51V446.656Z" fill="black"/>
<path d="M932.082 343.477H966.5V377.894H932.082V343.477Z" fill="black"/>
<path d="M966.5 377.914H1000.92V412.332H966.5V377.914Z" fill="black"/>
<path d="M897.672 309.086H932.089V343.503H897.672V309.086Z" fill="black"/>
<path d="M691.209 171.438H725.626V205.855H691.209V171.438Z" fill="black"/>
<path d="M725.626 137.031H760.044V171.449H725.626V137.031Z" fill="black"/>
<path d="M725.626 102.586H760.044V137.003H725.626V102.586Z" fill="black"/>
<path d="M725.626 68.2031H760.044V102.621H725.626V68.2031Z" fill="black"/>
<path d="M725.626 33.7656H760.044V68.1831H725.626V33.7656Z" fill="black"/>
<path d="M622.376 171.398L622.376 205.816L587.959 205.816L587.959 171.398L622.376 171.398Z" fill="black"/>
<path d="M656.791 171.398L656.791 205.816L622.374 205.816L622.374 171.398L656.791 171.398Z" fill="black"/>
<path d="M691.209 171.398L691.209 205.816L656.792 205.816L656.792 171.398L691.209 171.398Z" fill="black"/>
<path d="M967.43 169.977H1001.85V204.394H967.43V169.977Z" fill="black"/>
<path d="M933.312 135.539H967.729V169.957H933.312V135.539Z" fill="black"/>
<path d="M933.31 32.1797H967.727V66.5972H933.31V32.1797Z" fill="black"/>
<path d="M899.512 101L899.512 66.5825L933.929 66.5825L933.929 101L899.512 101Z" fill="black"/>
<path d="M899.512 135.391L899.512 100.973L933.929 100.973L933.929 135.391L899.512 135.391Z" fill="black"/>
<path d="M967.725 -2.23438L1002.14 -2.23437V32.1832L967.725 32.1832L967.725 -2.23438Z" fill="black"/>
<path d="M507.476 278.573C498.996 283.603 487.785 285.903 475.712 273.83C462.489 260.607 465.363 243.072 480.599 227.836C496.121 212.314 513.369 209.726 526.592 222.949C538.522 234.879 536.366 246.234 531.766 254.57L544.702 263.769C554.332 248.964 554.619 230.567 536.797 212.745C518.399 194.347 492.959 192.479 469.1 216.338C445.241 240.197 447.11 265.637 465.507 284.034C483.33 301.857 501.727 301.569 516.531 291.652L507.476 278.573ZM588.937 335.6L600.435 347.098L634.93 312.603L623.432 301.104L588.937 335.6ZM542.943 289.606L554.442 301.104L588.937 266.609L577.438 255.111L542.943 289.606ZM525.696 329.85L537.194 341.349L565.94 312.603L554.442 301.104L525.696 329.85ZM548.693 352.847L560.191 364.345L588.937 335.6L577.438 324.101L548.693 352.847ZM514.198 364.345L525.696 375.844L548.693 352.847L537.194 341.349L514.198 364.345ZM479.703 352.847L502.699 375.844L514.198 364.345L491.201 341.349L479.703 352.847ZM742.884 421.707L731.386 410.208L673.607 467.988L645.436 439.817L703.215 382.038L691.717 370.539L633.938 428.318L605.767 400.147L663.546 342.368L652.047 330.87L583.632 399.285L674.469 490.122L742.884 421.707ZM696.061 511.714L707.559 523.212L719.058 511.714L730.556 523.212L742.054 511.714L730.556 500.215L776.549 454.222L765.051 442.724L696.061 511.714ZM742.054 557.707L753.553 569.205L822.543 500.215L811.044 488.717L788.048 511.714L776.549 500.215L765.051 511.714L776.549 523.212L742.054 557.707ZM742.054 511.714L753.553 523.212L765.051 511.714L753.553 500.215L742.054 511.714ZM825.677 525.771L850.829 550.924L793.05 608.703L804.549 620.201L862.328 562.422L887.48 587.575L898.116 576.939L836.313 515.135L825.677 525.771ZM911.119 611.789L951.363 652.033L962.862 640.534L922.618 600.29L911.119 611.789ZM853.628 646.284L865.126 657.782L882.373 640.534L934.116 692.277L962.862 663.531L951.363 652.033L934.116 669.28L893.872 629.036L911.119 611.789L899.621 600.29L853.628 646.284ZM905.37 698.026L916.868 709.525L928.367 698.026L916.868 686.528L905.37 698.026ZM853.628 669.28L893.872 709.525L905.37 698.026L865.126 657.782L853.628 669.28Z" fill="black"/>
<path d="M291.91 591.583L325.287 624.96C342.582 642.255 358.057 641.345 370.346 629.056C378.387 621.015 381.269 610.244 374.746 600.079C384.304 605.389 393.862 601.596 401.144 594.314C413.281 582.176 412.067 567.308 395.379 550.62L364.126 519.367L291.91 591.583ZM385.517 561.392C394.62 570.494 394.924 577.777 388.4 584.3C381.724 590.976 374.442 590.976 366.098 582.632L345.313 561.847L365.643 541.517L385.517 561.392ZM356.995 593.252C365.946 602.203 366.401 609.94 359.271 617.071C352.444 623.898 344.858 623.898 335.755 614.795L314.06 593.1L335.452 571.708L356.995 593.252ZM493.379 623.132L505.516 635.269L517.653 623.132L505.516 610.995L493.379 623.132ZM463.036 592.789L475.173 604.926L487.31 592.789L475.173 580.652L463.036 592.789ZM438.762 617.064L481.242 659.544L493.379 647.406L450.899 604.926L438.762 617.064ZM378.076 653.475L390.213 665.612L408.419 647.406L463.036 702.024L493.379 671.681L481.242 659.544L463.036 677.749L420.556 635.269L438.762 617.064L426.625 604.926L378.076 653.475ZM432.693 708.092L444.83 720.229L456.968 708.092L444.83 695.955L432.693 708.092ZM378.076 677.749L420.556 720.229L432.693 708.092L390.213 665.612L378.076 677.749ZM525.47 778.112C516.519 783.422 504.685 785.849 491.941 773.105C477.984 759.147 481.018 740.638 497.1 724.557C513.485 708.171 531.69 705.441 545.648 719.398C558.24 731.991 555.965 743.976 551.11 752.775L564.764 762.485C574.929 746.859 575.232 727.439 556.42 708.627C537 689.207 510.147 687.235 484.962 712.419C459.778 737.604 461.75 764.457 481.17 783.877C499.982 802.689 519.402 802.386 535.028 791.918L525.47 778.112ZM562.605 810.088C551.529 820.253 544.399 821.618 537.117 814.336L532.717 809.936L521.49 821.163L527.103 826.776C541.061 840.734 552.895 841.038 572.921 822.528C581.872 814.184 597.65 799.013 609.636 787.331L637.4 815.094L576.41 876.084L588.548 888.221L660.764 816.005L609.636 764.877C597.802 776.407 574.438 799.164 562.605 810.088ZM730.435 884.462L694.023 848.051L681.886 860.188L718.298 896.599L730.435 884.462ZM657.612 933.011L669.749 945.148L657.612 957.285L669.749 969.422L730.435 908.736L718.298 896.599L706.16 908.736L669.749 872.325L657.612 884.462L694.023 920.874L681.886 933.011L669.749 920.874L657.612 933.011ZM657.612 860.188L669.749 872.325L681.886 860.188L669.749 848.051L657.612 860.188ZM621.201 896.599L633.338 908.736L657.612 884.462L645.475 872.325L621.201 896.599ZM621.201 920.874L645.475 945.148L657.612 933.011L633.338 908.736L621.201 920.874Z" fill="black"/>
</g>
<defs>
<clipPath id="clip0_1401_521">
<rect width="1000" height="1000" fill="white" transform="translate(0.288086)"/>
</clipPath>
</defs>
</svg>
