<svg width="1000" height="1000" viewBox="0 0 1000 1000" fill="none" xmlns="http://www.w3.org/2000/svg">
<g clip-path="url(#clip0_1401_2070)">
<rect width="1000" height="1000" rx="500" fill="#D0DBD7"/>
<path d="M201.84 70.5625H236.257V104.98H201.84V70.5625Z" fill="black"/>
<path d="M167.422 36.1719H201.839V70.5893H167.422V36.1719Z" fill="black"/>
<path d="M133.625 1.73438H168.042V36.1518H133.625V1.73438Z" fill="black"/>
<path d="M99.2087 -32.6641H133.626V1.7534H99.2087V-32.6641Z" fill="black"/>
<path d="M64.1744 208.344H98.5919V242.761H64.1744V208.344Z" fill="black"/>
<path d="M29.7554 173.953H64.1728V208.371H29.7554V173.953Z" fill="black"/>
<path d="M-4.04248 139.516H30.375V173.933H-4.04248V139.516Z" fill="black"/>
<path d="M167.374 173.922H201.792V208.339H167.374V173.922Z" fill="black"/>
<path d="M132.957 139.484H167.375V173.902H132.957V139.484Z" fill="black"/>
<path d="M98.5394 105.094H132.957V139.511H98.5394V105.094Z" fill="black"/>
<path d="M64.1224 70.6562H98.5399V105.074H64.1224V70.6562Z" fill="black"/>
<path d="M29.7073 36.2578H64.1247V70.6753H29.7073V36.2578Z" fill="black"/>
<path d="M-4.71069 1.82812H29.7068V36.2456H-4.71069V1.82812Z" fill="black"/>
<path d="M270.675 242.836H305.092V277.253H270.675V242.836Z" fill="black"/>
<path d="M339.471 311.609H373.888V346.027H339.471V311.609Z" fill="black"/>
<path d="M305.072 277.211H339.49V311.628H305.072V277.211Z" fill="black"/>
<path d="M373.889 346.023H408.306V380.441H373.889V346.023Z" fill="black"/>
<path d="M236.257 277.195H270.675V311.613H236.257V277.195Z" fill="black"/>
<path d="M270.675 311.625H305.093V346.042H270.675V311.625Z" fill="black"/>
<path d="M305.072 346.016H339.489V380.433H305.072V346.016Z" fill="black"/>
<path d="M339.471 380.43H373.889V414.847H339.471V380.43Z" fill="black"/>
<path d="M373.907 414.812H408.324V449.23H373.907V414.812Z" fill="black"/>
<path d="M408.325 449.219H442.742V483.636H408.325V449.219Z" fill="black"/>
<path d="M442.743 483.648H477.16V518.066H442.743V483.648Z" fill="black"/>
<path d="M477.14 518.039H511.557V552.457H477.14V518.039Z" fill="black"/>
<path d="M511.539 552.453H545.956V586.871H511.539V552.453Z" fill="black"/>
<path d="M545.974 586.836H580.392V621.253H545.974V586.836Z" fill="black"/>
<path d="M442.713 414.859H477.131V449.277H442.713V414.859Z" fill="black"/>
<path d="M477.131 449.289H511.549V483.707H477.131V449.289Z" fill="black"/>
<path d="M511.528 483.68H545.945V518.097H511.528V483.68Z" fill="black"/>
<path d="M545.927 518.094H580.344V552.511H545.927V518.094Z" fill="black"/>
<path d="M580.363 552.477H614.78V586.894H580.363V552.477Z" fill="black"/>
<path d="M580.388 621.32H614.805V655.738H580.388V621.32Z" fill="black"/>
<path d="M614.806 655.75H649.223V690.167H614.806V655.75Z" fill="black"/>
<path d="M649.202 690.141H683.62V724.558H649.202V690.141Z" fill="black"/>
<path d="M683.602 724.555H718.019V758.972H683.602V724.555Z" fill="black"/>
<path d="M718.037 758.938H752.455V793.355H718.037V758.938Z" fill="black"/>
<path d="M752.409 793.406H786.827V827.824H752.409V793.406Z" fill="black"/>
<path d="M786.827 827.836H821.245V862.253H786.827V827.836Z" fill="black"/>
<path d="M821.224 862.227H855.641V896.644H821.224V862.227Z" fill="black"/>
<path d="M855.623 896.641H890.041V931.058H855.623V896.641Z" fill="black"/>
<path d="M890.059 931.023H924.476V965.441H890.059V931.023Z" fill="black"/>
<path d="M614.779 586.953H649.197V621.371H614.779V586.953Z" fill="black"/>
<path d="M649.197 621.383H683.614V655.8H649.197V621.383Z" fill="black"/>
<path d="M683.594 655.773H718.011V690.191H683.594V655.773Z" fill="black"/>
<path d="M717.993 690.188H752.41V724.605H717.993V690.188Z" fill="black"/>
<path d="M752.429 724.57H786.847V758.988H752.429V724.57Z" fill="black"/>
<path d="M786.844 758.93H821.261V793.347H786.844V758.93Z" fill="black"/>
<path d="M821.262 793.359H855.679V827.777H821.262V793.359Z" fill="black"/>
<path d="M855.658 827.75H890.076V862.167H855.658V827.75Z" fill="black"/>
<path d="M890.058 862.164H924.475V896.582H890.058V862.164Z" fill="black"/>
<path d="M924.493 896.547H958.911V930.964H924.493V896.547Z" fill="black"/>
<path d="M958.913 931.047H993.331V965.464H958.913V931.047Z" fill="black"/>
<path d="M993.331 965.477H1027.75V999.894H993.331V965.477Z" fill="black"/>
<path d="M924.503 965.406H958.92V999.824H924.503V965.406Z" fill="black"/>
<path d="M958.921 999.836H993.338V1034.25H958.921V999.836Z" fill="black"/>
<path d="M408.304 380.438H442.721V414.855H408.304V380.438Z" fill="black"/>
<path d="M201.84 242.797H236.257V277.214H201.84V242.797Z" fill="black"/>
<path d="M236.257 208.383H270.675V242.8H236.257V208.383Z" fill="black"/>
<path d="M236.257 173.945H270.675V208.363H236.257V173.945Z" fill="black"/>
<path d="M236.257 139.547H270.675V173.964H236.257V139.547Z" fill="black"/>
<path d="M236.257 105.117H270.675V139.535H236.257V105.117Z" fill="black"/>
<path d="M133.006 242.742L133.006 277.16L98.589 277.16L98.589 242.742L133.006 242.742Z" fill="black"/>
<path d="M167.422 242.742L167.422 277.16L133.004 277.16L133.004 242.742L167.422 242.742Z" fill="black"/>
<path d="M201.839 242.742L201.839 277.16L167.422 277.16L167.422 242.742L201.839 242.742Z" fill="black"/>
<path d="M454.475 68.375H488.892V102.792H454.475V68.375Z" fill="black"/>
<path d="M420.057 33.9844H454.474V68.4018H420.057V33.9844Z" fill="black"/>
<path d="M386.259 -0.453125H420.676V33.9643H386.259V-0.453125Z" fill="black"/>
<path d="M557.677 33.9297H592.095V68.3472H557.677V33.9297Z" fill="black"/>
<path d="M523.26 -0.507812H557.678V33.9097H523.26V-0.507812Z" fill="black"/>
<path d="M660.978 102.852H695.396V137.269H660.978V102.852Z" fill="black"/>
<path d="M729.774 171.641H764.191V206.058H729.774V171.641Z" fill="black"/>
<path d="M695.375 137.234H729.792V171.652H695.375V137.234Z" fill="black"/>
<path d="M764.192 206.047H798.609V240.464H764.192V206.047Z" fill="black"/>
<path d="M626.56 137.211H660.978V171.628H626.56V137.211Z" fill="black"/>
<path d="M660.978 171.641H695.395V206.058H660.978V171.641Z" fill="black"/>
<path d="M695.375 206.031H729.792V240.449H695.375V206.031Z" fill="black"/>
<path d="M729.774 240.445H764.191V274.863H729.774V240.445Z" fill="black"/>
<path d="M764.209 274.828H798.627V309.246H764.209V274.828Z" fill="black"/>
<path d="M798.63 309.234H833.047V343.652H798.63V309.234Z" fill="black"/>
<path d="M833.047 343.664H867.465V378.082H833.047V343.664Z" fill="black"/>
<path d="M867.444 378.055H901.861V412.472H867.444V378.055Z" fill="black"/>
<path d="M901.843 412.469H936.261V446.886H901.843V412.469Z" fill="black"/>
<path d="M936.279 446.852H970.696V481.269H936.279V446.852Z" fill="black"/>
<path d="M833.017 274.859H867.434V309.277H833.017V274.859Z" fill="black"/>
<path d="M867.435 309.289H901.852V343.707H867.435V309.289Z" fill="black"/>
<path d="M901.831 343.68H936.248V378.097H901.831V343.68Z" fill="black"/>
<path d="M936.23 378.094H970.648V412.511H936.23V378.094Z" fill="black"/>
<path d="M970.666 412.477H1005.08V446.894H970.666V412.477Z" fill="black"/>
<path d="M970.692 481.305H1005.11V515.722H970.692V481.305Z" fill="black"/>
<path d="M798.606 240.469H833.024V274.886H798.606V240.469Z" fill="black"/>
<path d="M592.143 102.836H626.561V137.253H592.143V102.836Z" fill="black"/>
<path d="M626.56 68.4141H660.978V102.832H626.56V68.4141Z" fill="black"/>
<path d="M626.56 33.9766H660.978V68.394H626.56V33.9766Z" fill="black"/>
<path d="M626.56 -0.421875H660.978V33.9956H626.56V-0.421875Z" fill="black"/>
<path d="M523.31 102.789L523.31 137.207L488.893 137.207L488.893 102.789L523.31 102.789Z" fill="black"/>
<path d="M557.725 102.789L557.725 137.207L523.308 137.207L523.308 102.789L557.725 102.789Z" fill="black"/>
<path d="M592.143 102.789L592.143 137.207L557.726 137.207L557.726 102.789L592.143 102.789Z" fill="black"/>
<path d="M970.995 207.43H1005.41V241.847H970.995V207.43Z" fill="black"/>
<path d="M936.577 173.039H970.995V207.457H936.577V173.039Z" fill="black"/>
<path d="M902.779 138.602H937.197V173.019H902.779V138.602Z" fill="black"/>
<path d="M868.364 104.203H902.782V138.621H868.364V104.203Z" fill="black"/>
<path d="M834.246 69.7734H868.664V104.191H834.246V69.7734Z" fill="black"/>
<path d="M970.944 69.7344H1005.36V104.152H970.944V69.7344Z" fill="black"/>
<path d="M936.529 35.3359H970.947V69.7534H936.529V35.3359Z" fill="black"/>
<path d="M902.111 0.90625H936.529V35.3237H902.111V0.90625Z" fill="black"/>
<path d="M834.244 -33.5859H868.661V0.83153H834.244V-33.5859Z" fill="black"/>
<path d="M800.446 35.2344L800.446 0.816879L834.864 0.816878L834.864 35.2344L800.446 35.2344Z" fill="black"/>
<path d="M800.446 69.6328L800.446 35.2153L834.864 35.2153L834.864 69.6328L800.446 69.6328Z" fill="black"/>
<path d="M68.8582 431.086H103.276V465.503H68.8582V431.086Z" fill="black"/>
<path d="M34.4403 396.695H68.8578V431.113H34.4403V396.695Z" fill="black"/>
<path d="M0.643311 362.258H35.0608V396.675H0.643311V362.258Z" fill="black"/>
<path d="M-33.7726 327.859H0.644884V362.277H-33.7726V327.859Z" fill="black"/>
<path d="M34.3933 534.43H68.8108V568.847H34.3933V534.43Z" fill="black"/>
<path d="M-0.0236816 499.992H34.3938V534.41H-0.0236816V499.992Z" fill="black"/>
<path d="M137.693 603.352H172.111V637.769H137.693V603.352Z" fill="black"/>
<path d="M206.489 672.125H240.906V706.542H206.489V672.125Z" fill="black"/>
<path d="M172.091 637.719H206.508V672.136H172.091V637.719Z" fill="black"/>
<path d="M240.907 706.539H275.324V740.957H240.907V706.539Z" fill="black"/>
<path d="M103.276 637.711H137.693V672.128H103.276V637.711Z" fill="black"/>
<path d="M137.693 672.141H172.111V706.558H137.693V672.141Z" fill="black"/>
<path d="M172.09 706.531H206.507V740.949H172.09V706.531Z" fill="black"/>
<path d="M206.49 740.945H240.908V775.363H206.49V740.945Z" fill="black"/>
<path d="M240.925 775.328H275.342V809.746H240.925V775.328Z" fill="black"/>
<path d="M275.345 809.75H309.762V844.167H275.345V809.75Z" fill="black"/>
<path d="M309.763 844.188H344.18V878.605H309.763V844.188Z" fill="black"/>
<path d="M344.159 878.57H378.577V912.988H344.159V878.57Z" fill="black"/>
<path d="M378.559 912.984H412.976V947.402H378.559V912.984Z" fill="black"/>
<path d="M412.994 947.367H447.412V981.785H412.994V947.367Z" fill="black"/>
<path d="M309.731 775.391H344.148V809.808H309.731V775.391Z" fill="black"/>
<path d="M344.149 809.82H378.566V844.238H344.149V809.82Z" fill="black"/>
<path d="M378.544 844.211H412.962V878.628H378.544V844.211Z" fill="black"/>
<path d="M412.945 878.625H447.362V913.042H412.945V878.625Z" fill="black"/>
<path d="M447.38 913.008H481.798V947.425H447.38V913.008Z" fill="black"/>
<path d="M447.406 981.852H481.823V1016.27H447.406V981.852Z" fill="black"/>
<path d="M481.797 947.5H516.215V981.917H481.797V947.5Z" fill="black"/>
<path d="M516.216 981.93H550.634V1016.35H516.216V981.93Z" fill="black"/>
<path d="M275.322 740.961H309.74V775.378H275.322V740.961Z" fill="black"/>
<path d="M68.8582 603.328H103.276V637.746H68.8582V603.328Z" fill="black"/>
<path d="M103.276 568.898H137.693V603.316H103.276V568.898Z" fill="black"/>
<path d="M103.276 534.461H137.693V568.878H103.276V534.461Z" fill="black"/>
<path d="M103.276 500.062H137.693V534.48H103.276V500.062Z" fill="black"/>
<path d="M103.276 465.633H137.693V500.05H103.276V465.633Z" fill="black"/>
<path d="M0.026123 603.273L0.0261215 637.691L-34.3913 637.691L-34.3913 603.273L0.026123 603.273Z" fill="black"/>
<path d="M34.4413 603.273L34.4413 637.691L0.0238154 637.691L0.0238169 603.273L34.4413 603.273Z" fill="black"/>
<path d="M68.8591 603.273L68.8591 637.691L34.4417 637.691L34.4417 603.273L68.8591 603.273Z" fill="black"/>
<path d="M141.106 934.391H175.523V968.808H141.106V934.391Z" fill="black"/>
<path d="M106.688 900H141.105V934.417H106.688V900Z" fill="black"/>
<path d="M72.8907 865.562H107.308V899.98H72.8907V865.562Z" fill="black"/>
<path d="M38.4747 831.164H72.8922V865.582H38.4747V831.164Z" fill="black"/>
<path d="M4.35657 796.734H38.774V831.152H4.35657V796.734Z" fill="black"/>
<path d="M37.8066 968.93H72.2241V1003.35H37.8066V968.93Z" fill="black"/>
<path d="M3.38953 934.492H37.807V968.91H3.38953V934.492Z" fill="black"/>
<path d="M-31.0255 900.094H3.39195V934.511H-31.0255V900.094Z" fill="black"/>
<path d="M175.524 968.961H209.942V1003.38H175.524V968.961Z" fill="black"/>
<path d="M-30.0586 762.32L4.3589 762.32L4.3589 796.738L-30.0586 796.738L-30.0586 762.32Z" fill="black"/>
<path d="M415.038 220.306C406.562 225.334 395.356 227.632 383.289 215.565C370.072 202.348 372.946 184.822 388.173 169.594C403.689 154.079 420.928 151.493 434.144 164.71C446.068 176.633 443.913 187.982 439.316 196.315L452.245 205.509C461.87 190.712 462.158 172.324 444.344 154.51C425.956 136.122 400.528 134.254 376.681 158.102C352.833 181.949 354.701 207.376 373.089 225.765C390.903 243.578 409.291 243.291 424.088 233.379L415.038 220.306ZM496.458 277.304L507.951 288.797L542.429 254.319L530.936 242.826L496.458 277.304ZM450.488 231.334L461.98 242.826L496.458 208.348L484.966 196.856L450.488 231.334ZM433.249 271.558L444.741 283.051L473.473 254.319L461.98 242.826L433.249 271.558ZM456.234 294.543L467.727 306.036L496.458 277.304L484.966 265.812L456.234 294.543ZM421.756 306.036L433.249 317.529L456.234 294.543L444.741 283.051L421.756 306.036ZM387.278 294.543L410.263 317.529L421.756 306.036L398.77 283.051L387.278 294.543ZM650.33 363.369L638.837 351.877L581.087 409.627L552.93 381.47L610.68 323.72L599.188 312.227L541.437 369.978L513.28 341.821L571.031 284.07L559.538 272.577L491.156 340.959L581.949 431.751L650.33 363.369ZM603.53 453.332L615.023 464.825L626.515 453.332L638.008 464.825L649.501 453.332L638.008 441.839L683.979 395.869L672.486 384.376L603.53 453.332ZM649.501 499.303L660.993 510.796L729.949 441.839L718.457 430.347L695.471 453.332L683.979 441.839L672.486 453.332L683.979 464.825L649.501 499.303ZM649.501 453.332L660.993 464.825L672.486 453.332L660.993 441.839L649.501 453.332ZM733.082 467.383L758.222 492.523L700.471 550.274L711.964 561.766L769.715 504.016L794.855 529.156L805.486 518.525L743.713 456.752L733.082 467.383ZM818.482 553.358L858.707 593.582L870.199 582.089L829.975 541.865L818.482 553.358ZM761.019 587.836L772.512 599.328L789.751 582.089L841.468 633.807L870.199 605.075L858.707 593.582L841.468 610.821L801.243 570.597L818.482 553.358L806.99 541.865L761.019 587.836ZM812.736 639.553L824.229 651.046L835.721 639.553L824.229 628.06L812.736 639.553ZM761.019 610.821L801.243 651.046L812.736 639.553L772.512 599.328L761.019 610.821Z" fill="black"/>
<path d="M167.194 466.858L200.555 500.219C217.842 517.506 233.309 516.596 245.592 504.313C253.629 496.276 256.51 485.51 249.989 475.35C259.543 480.658 269.096 476.867 276.375 469.588C288.506 457.457 287.293 442.596 270.612 425.916L239.375 394.678L167.194 466.858ZM260.756 436.682C269.854 445.78 270.157 453.059 263.637 459.58C256.965 466.252 249.686 466.252 241.346 457.912L220.571 437.137L240.891 416.817L260.756 436.682ZM232.248 468.526C241.194 477.473 241.649 485.207 234.522 492.334C227.698 499.158 220.116 499.158 211.018 490.059L189.334 468.375L210.715 446.994L232.248 468.526ZM368.564 498.392L380.696 510.523L392.827 498.392L380.696 486.261L368.564 498.392ZM338.236 468.064L350.368 480.196L362.499 468.064L350.368 455.933L338.236 468.064ZM313.974 492.327L356.433 534.786L368.564 522.655L326.105 480.196L313.974 492.327ZM253.318 528.72L265.45 540.851L283.646 522.655L338.236 577.245L368.564 546.917L356.433 534.786L338.236 552.983L295.777 510.523L313.974 492.327L301.843 480.196L253.318 528.72ZM307.909 583.31L320.04 595.442L332.171 583.31L320.04 571.179L307.909 583.31ZM253.318 552.983L295.777 595.442L307.909 583.31L265.45 540.851L253.318 552.983ZM400.64 653.296C391.693 658.603 379.865 661.029 367.127 648.292C353.177 634.341 356.209 615.841 372.283 599.767C388.66 583.39 406.857 580.66 420.808 594.611C433.394 607.197 431.119 619.177 426.267 627.972L439.914 637.677C450.074 622.058 450.378 602.648 431.574 583.845C412.164 564.435 385.324 562.464 360.152 587.636C334.98 612.808 336.951 639.648 356.361 659.058C375.164 677.861 394.574 677.558 410.193 667.095L400.64 653.296ZM437.756 685.256C426.686 695.416 419.559 696.781 412.28 689.502L407.883 685.104L396.662 696.326L402.272 701.936C416.223 715.887 428.051 716.191 448.067 697.691C457.014 689.35 472.785 674.186 484.764 662.51L512.514 690.26L451.555 751.219L463.686 763.35L535.867 691.17L484.764 640.067C472.936 651.592 449.584 674.338 437.756 685.256ZM605.504 759.594L569.11 723.2L556.979 735.331L593.372 771.725L605.504 759.594ZM532.717 808.118L544.848 820.25L532.717 832.381L544.848 844.512L605.504 783.856L593.372 771.725L581.241 783.856L544.848 747.463L532.717 759.594L569.11 795.987L556.979 808.118L544.848 795.987L532.717 808.118ZM532.717 735.331L544.848 747.463L556.979 735.331L544.848 723.2L532.717 735.331ZM496.323 771.725L508.454 783.856L532.717 759.594L520.585 747.463L496.323 771.725ZM496.323 795.987L520.585 820.25L532.717 808.118L508.454 783.856L496.323 795.987Z" fill="black"/>
</g>
<defs>
<clipPath id="clip0_1401_2070">
<rect width="1000" height="1000" rx="500" fill="white"/>
</clipPath>
</defs>
</svg>
