<svg width="1000" height="1000" viewBox="0 0 1000 1000" fill="none" xmlns="http://www.w3.org/2000/svg">
<g clip-path="url(#clip0_1401_3115)">
<rect width="1000" height="1000" rx="500" fill="#D0DBD7"/>
<path d="M220.256 112.328H252.191V144.264H220.256V112.328Z" fill="black"/>
<path d="M188.319 80.4141H220.255V112.35H188.319V80.4141Z" fill="black"/>
<path d="M156.959 48.4531H188.895V80.389H156.959V48.4531Z" fill="black"/>
<path d="M125.024 16.5391H156.96V48.4749H125.024V16.5391Z" fill="black"/>
<path d="M93.3665 -15.4062H125.302V16.5296H93.3665V-15.4062Z" fill="black"/>
<path d="M92.5159 240.172H124.452V272.108H92.5159V240.172Z" fill="black"/>
<path d="M60.5789 208.258H92.5147V240.194H60.5789V208.258Z" fill="black"/>
<path d="M29.218 176.297H61.1539V208.233H29.218V176.297Z" fill="black"/>
<path d="M-2.71582 144.383H29.22V176.319H-2.71582V144.383Z" fill="black"/>
<path d="M188.275 208.219H220.211V240.155H188.275V208.219Z" fill="black"/>
<path d="M156.339 176.273H188.275V208.209H156.339V176.273Z" fill="black"/>
<path d="M124.403 144.359H156.338V176.295H124.403V144.359Z" fill="black"/>
<path d="M92.4673 112.398H124.403V144.334H92.4673V112.398Z" fill="black"/>
<path d="M60.5344 80.4844H92.4703V112.42H60.5344V80.4844Z" fill="black"/>
<path d="M28.5977 48.5391H60.5335V80.4749H28.5977V48.5391Z" fill="black"/>
<path d="M284.127 272.164H316.063V304.1H284.127V272.164Z" fill="black"/>
<path d="M347.962 335.977H379.898V367.912H347.962V335.977Z" fill="black"/>
<path d="M316.044 304.062H347.98V335.998H316.044V304.062Z" fill="black"/>
<path d="M379.899 367.914H411.835V399.85H379.899V367.914Z" fill="black"/>
<path d="M252.192 304.047H284.128V335.983H252.192V304.047Z" fill="black"/>
<path d="M284.129 335.992H316.065V367.928H284.129V335.992Z" fill="black"/>
<path d="M316.045 367.898H347.981V399.834H316.045V367.898Z" fill="black"/>
<path d="M347.964 399.844H379.9V431.78H347.964V399.844Z" fill="black"/>
<path d="M379.916 431.742H411.852V463.678H379.916V431.742Z" fill="black"/>
<path d="M411.853 463.672H443.788V495.608H411.853V463.672Z" fill="black"/>
<path d="M443.789 495.617H475.725V527.553H443.789V495.617Z" fill="black"/>
<path d="M475.706 527.523H507.641V559.459H475.706V527.523Z" fill="black"/>
<path d="M507.624 559.469H539.56V591.405H507.624V559.469Z" fill="black"/>
<path d="M539.577 591.367H571.513V623.303H539.577V591.367Z" fill="black"/>
<path d="M443.761 431.781H475.697V463.717H443.761V431.781Z" fill="black"/>
<path d="M475.697 463.727H507.633V495.662H475.697V463.727Z" fill="black"/>
<path d="M507.614 495.633H539.55V527.569H507.614V495.633Z" fill="black"/>
<path d="M539.533 527.578H571.469V559.514H539.533V527.578Z" fill="black"/>
<path d="M571.485 559.477H603.421V591.412H571.485V559.477Z" fill="black"/>
<path d="M571.508 623.359H603.444V655.295H571.508V623.359Z" fill="black"/>
<path d="M603.445 655.305H635.381V687.241H603.445V655.305Z" fill="black"/>
<path d="M635.361 687.211H667.297V719.147H635.361V687.211Z" fill="black"/>
<path d="M667.28 719.156H699.216V751.092H667.28V719.156Z" fill="black"/>
<path d="M699.232 751.055H731.168V782.991H699.232V751.055Z" fill="black"/>
<path d="M731.127 783.039H763.063V814.975H731.127V783.039Z" fill="black"/>
<path d="M763.063 814.984H794.999V846.92H763.063V814.984Z" fill="black"/>
<path d="M794.98 846.891H826.916V878.826H794.98V846.891Z" fill="black"/>
<path d="M826.898 878.836H858.834V910.772H826.898V878.836Z" fill="black"/>
<path d="M858.851 910.734H890.787V942.67H858.851V910.734Z" fill="black"/>
<path d="M603.421 591.461H635.357V623.397H603.421V591.461Z" fill="black"/>
<path d="M635.357 623.406H667.293V655.342H635.357V623.406Z" fill="black"/>
<path d="M667.274 655.312H699.21V687.248H667.274V655.312Z" fill="black"/>
<path d="M699.193 687.258H731.129V719.194H699.193V687.258Z" fill="black"/>
<path d="M731.146 719.156H763.082V751.092H731.146V719.156Z" fill="black"/>
<path d="M763.079 751.062H795.015V782.998H763.079V751.062Z" fill="black"/>
<path d="M795.016 783.008H826.951V814.944H795.016V783.008Z" fill="black"/>
<path d="M826.932 814.914H858.868V846.85H826.932V814.914Z" fill="black"/>
<path d="M858.851 846.859H890.786V878.795H858.851V846.859Z" fill="black"/>
<path d="M890.803 878.758H922.739V910.694H890.803V878.758Z" fill="black"/>
<path d="M922.742 910.742H954.678V942.678H922.742V910.742Z" fill="black"/>
<path d="M954.679 942.688H986.615V974.623H954.679V942.688Z" fill="black"/>
<path d="M986.595 974.594H1018.53V1006.53H986.595V974.594Z" fill="black"/>
<path d="M890.813 942.648H922.749V974.584H890.813V942.648Z" fill="black"/>
<path d="M922.75 974.594H954.686V1006.53H922.75V974.594Z" fill="black"/>
<path d="M411.833 399.852H443.769V431.787H411.833V399.852Z" fill="black"/>
<path d="M220.256 272.125H252.192V304.061H220.256V272.125Z" fill="black"/>
<path d="M252.192 240.188H284.128V272.123H252.192V240.188Z" fill="black"/>
<path d="M252.192 208.227H284.128V240.162H252.192V208.227Z" fill="black"/>
<path d="M252.192 176.312H284.128V208.248H252.192V176.312Z" fill="black"/>
<path d="M252.192 144.367H284.128V176.303H252.192V144.367Z" fill="black"/>
<path d="M156.385 272.086L156.385 304.022L124.45 304.022L124.45 272.086L156.385 272.086Z" fill="black"/>
<path d="M188.318 272.086L188.318 304.022L156.382 304.022L156.382 272.086L188.318 272.086Z" fill="black"/>
<path d="M220.255 272.086L220.255 304.022L188.319 304.022L188.319 272.086L220.255 272.086Z" fill="black"/>
<path d="M-2.44263 -15.375L29.4932 -15.375L29.4932 16.5609L-2.44263 16.5609L-2.44263 -15.375Z" fill="black"/>
<path d="M786.308 133.258H818.244V165.194H786.308V133.258Z" fill="black"/>
<path d="M754.372 101.344H786.307V133.28H754.372V101.344Z" fill="black"/>
<path d="M723.012 69.3828H754.948V101.319H723.012V69.3828Z" fill="black"/>
<path d="M691.077 37.4688H723.013V69.4046H691.077V37.4688Z" fill="black"/>
<path d="M659.419 5.52344H691.355V37.4593H659.419V5.52344Z" fill="black"/>
<path d="M658.567 261.109H690.503V293.045H658.567V261.109Z" fill="black"/>
<path d="M626.631 229.195H658.567V261.131H626.631V229.195Z" fill="black"/>
<path d="M595.27 197.234H627.206V229.17H595.27V197.234Z" fill="black"/>
<path d="M563.336 165.32H595.272V197.256H563.336V165.32Z" fill="black"/>
<path d="M531.678 133.375H563.614V165.311H531.678V133.375Z" fill="black"/>
<path d="M754.329 229.156H786.265V261.092H754.329V229.156Z" fill="black"/>
<path d="M722.394 197.211H754.329V229.147H722.394V197.211Z" fill="black"/>
<path d="M690.457 165.297H722.393V197.233H690.457V165.297Z" fill="black"/>
<path d="M658.521 133.336H690.457V165.272H658.521V133.336Z" fill="black"/>
<path d="M626.588 101.422H658.524V133.358H626.588V101.422Z" fill="black"/>
<path d="M594.652 69.4766H626.588V101.412H594.652V69.4766Z" fill="black"/>
<path d="M850.181 293.102H882.117V325.037H850.181V293.102Z" fill="black"/>
<path d="M914.017 356.938H945.952V388.873H914.017V356.938Z" fill="black"/>
<path d="M882.097 325.008H914.033V356.944H882.097V325.008Z" fill="black"/>
<path d="M945.953 388.859H977.888V420.795H945.953V388.859Z" fill="black"/>
<path d="M818.245 324.984H850.181V356.92H818.245V324.984Z" fill="black"/>
<path d="M850.181 356.93H882.117V388.866H850.181V356.93Z" fill="black"/>
<path d="M882.098 388.836H914.033V420.772H882.098V388.836Z" fill="black"/>
<path d="M914.016 420.781H945.952V452.717H914.016V420.781Z" fill="black"/>
<path d="M945.969 452.68H977.905V484.616H945.969V452.68Z" fill="black"/>
<path d="M977.907 484.602H1009.84V516.537H977.907V484.602Z" fill="black"/>
<path d="M977.885 420.797H1009.82V452.733H977.885V420.797Z" fill="black"/>
<path d="M786.309 293.086H818.245V325.022H786.309V293.086Z" fill="black"/>
<path d="M818.245 261.148H850.181V293.084H818.245V261.148Z" fill="black"/>
<path d="M818.245 229.188H850.181V261.123H818.245V229.188Z" fill="black"/>
<path d="M818.245 197.273H850.181V229.209H818.245V197.273Z" fill="black"/>
<path d="M818.245 165.328H850.181V197.264H818.245V165.328Z" fill="black"/>
<path d="M722.439 293.047L722.439 324.983L690.504 324.983L690.504 293.047L722.439 293.047Z" fill="black"/>
<path d="M754.373 293.047L754.373 324.983L722.437 324.983L722.437 293.047L754.373 293.047Z" fill="black"/>
<path d="M786.309 293.047L786.309 324.983L754.373 324.983L754.373 293.047L786.309 293.047Z" fill="black"/>
<path d="M531.677 37.4688H563.613V69.4046H531.677V37.4688Z" fill="black"/>
<path d="M500.317 101.328L500.317 69.3922L532.253 69.3922L532.253 101.328L500.317 101.328Z" fill="black"/>
<path d="M500.317 133.242L500.317 101.306L532.253 101.306L532.253 133.242L500.317 133.242Z" fill="black"/>
<path d="M627.485 -26.4062L659.421 -26.4062L659.421 5.52961L627.485 5.52961L627.485 -26.4062Z" fill="black"/>
<path d="M595.549 -26.4062L627.485 -26.4062L627.485 5.52961L595.549 5.52961L595.549 -26.4062Z" fill="black"/>
<path d="M563.612 5.55469L595.548 5.55469V37.4906L563.612 37.4906V5.55469Z" fill="black"/>
<path d="M244.176 660.312H276.112V692.248H244.176V660.312Z" fill="black"/>
<path d="M212.24 628.398H244.175V660.334H212.24V628.398Z" fill="black"/>
<path d="M180.88 596.438H212.816V628.373H180.88V596.438Z" fill="black"/>
<path d="M148.945 564.523H180.881V596.459H148.945V564.523Z" fill="black"/>
<path d="M117.287 532.578H149.223V564.514H117.287V532.578Z" fill="black"/>
<path d="M116.434 788.148H148.37V820.084H116.434V788.148Z" fill="black"/>
<path d="M84.4983 756.234H116.434V788.17H84.4983V756.234Z" fill="black"/>
<path d="M53.1375 724.273H85.0733V756.209H53.1375V724.273Z" fill="black"/>
<path d="M21.2036 692.367H53.1395V724.303H21.2036V692.367Z" fill="black"/>
<path d="M-10.4543 660.414H21.4815V692.35H-10.4543V660.414Z" fill="black"/>
<path d="M212.196 756.195H244.132V788.131H212.196V756.195Z" fill="black"/>
<path d="M180.261 724.25H212.197V756.186H180.261V724.25Z" fill="black"/>
<path d="M148.325 692.336H180.261V724.272H148.325V692.336Z" fill="black"/>
<path d="M116.389 660.375H148.325V692.311H116.389V660.375Z" fill="black"/>
<path d="M84.4561 628.461H116.392V660.397H84.4561V628.461Z" fill="black"/>
<path d="M52.5193 596.516H84.4551V628.451H52.5193V596.516Z" fill="black"/>
<path d="M308.048 820.148H339.984V852.084H308.048V820.148Z" fill="black"/>
<path d="M371.883 883.969H403.819V915.905H371.883V883.969Z" fill="black"/>
<path d="M339.965 852.039H371.901V883.975H339.965V852.039Z" fill="black"/>
<path d="M403.82 915.891H435.756V947.826H403.82V915.891Z" fill="black"/>
<path d="M276.112 852.031H308.048V883.967H276.112V852.031Z" fill="black"/>
<path d="M308.049 883.977H339.984V915.912H308.049V883.977Z" fill="black"/>
<path d="M339.965 915.883H371.901V947.819H339.965V915.883Z" fill="black"/>
<path d="M371.884 947.828H403.82V979.764H371.884V947.828Z" fill="black"/>
<path d="M403.836 979.727H435.772V1011.66H403.836V979.727Z" fill="black"/>
<path d="M467.682 979.789H499.618V1011.72H467.682V979.789Z" fill="black"/>
<path d="M435.753 947.844H467.689V979.78H435.753V947.844Z" fill="black"/>
<path d="M244.177 820.125H276.112V852.061H244.177V820.125Z" fill="black"/>
<path d="M276.112 788.18H308.048V820.116H276.112V788.18Z" fill="black"/>
<path d="M276.112 756.219H308.048V788.155H276.112V756.219Z" fill="black"/>
<path d="M276.112 724.305H308.048V756.241H276.112V724.305Z" fill="black"/>
<path d="M276.112 692.359H308.048V724.295H276.112V692.359Z" fill="black"/>
<path d="M180.307 820.078L180.307 852.014L148.371 852.014L148.371 820.078L180.307 820.078Z" fill="black"/>
<path d="M212.24 820.078L212.24 852.014L180.304 852.014L180.304 820.078L212.24 820.078Z" fill="black"/>
<path d="M244.177 820.078L244.177 852.014L212.241 852.014L212.241 820.078L244.177 820.078Z" fill="black"/>
<path d="M-10.4551 564.508H21.4808V596.444H-10.4551V564.508Z" fill="black"/>
<path d="M85.353 500.633L117.289 500.633L117.289 532.569L85.353 532.569L85.353 500.633Z" fill="black"/>
<path d="M53.4175 500.633L85.3534 500.633L85.3534 532.569L53.4175 532.569L53.4175 500.633Z" fill="black"/>
<path d="M21.479 532.602H53.4149L53.4149 564.537H21.479L21.479 532.602Z" fill="black"/>
<path d="M425.433 232.332C417.569 236.997 407.171 239.13 395.974 227.933C383.71 215.669 386.376 199.407 400.506 185.277C414.903 170.88 430.899 168.481 443.162 180.745C454.226 191.809 452.227 202.339 447.961 210.071L459.958 218.602C468.889 204.872 469.156 187.81 452.627 171.28C435.564 154.218 411.97 152.485 389.842 174.613C367.714 196.741 369.447 220.335 386.51 237.397C403.039 253.927 420.101 253.66 433.831 244.462L425.433 232.332ZM500.983 285.221L511.647 295.885L543.64 263.893L532.976 253.229L500.983 285.221ZM458.327 242.565L468.991 253.229L500.983 221.237L490.319 210.573L458.327 242.565ZM442.331 279.889L452.995 290.553L479.655 263.893L468.991 253.229L442.331 279.889ZM463.659 301.217L474.323 311.881L500.983 285.221L490.319 274.557L463.659 301.217ZM431.667 311.881L442.331 322.545L463.659 301.217L452.995 290.553L431.667 311.881ZM399.675 301.217L421.003 322.545L431.667 311.881L410.339 290.553L399.675 301.217ZM643.761 365.08L633.097 354.416L579.51 408.003L553.383 381.876L606.97 328.289L596.306 317.625L542.719 371.212L516.592 345.085L570.179 291.498L559.515 280.834L496.064 344.285L580.31 428.531L643.761 365.08ZM600.335 448.556L610.999 459.22L621.663 448.556L632.327 459.22L642.991 448.556L632.327 437.892L674.983 395.236L664.319 384.572L600.335 448.556ZM642.991 491.213L653.655 501.877L717.639 437.892L706.975 427.228L685.647 448.556L674.983 437.892L664.319 448.556L674.983 459.22L642.991 491.213ZM642.991 448.556L653.655 459.22L664.319 448.556L653.655 437.892L642.991 448.556ZM720.546 461.594L743.873 484.921L690.287 538.508L700.951 549.172L754.537 495.585L777.865 518.913L787.729 509.049L730.41 451.73L720.546 461.594ZM799.789 541.37L837.113 578.694L847.777 568.03L810.453 530.706L799.789 541.37ZM746.468 573.362L757.132 584.026L773.129 568.03L821.117 616.018L847.777 589.358L837.113 578.694L821.117 594.69L783.793 557.366L799.789 541.37L789.125 530.706L746.468 573.362ZM794.457 621.35L805.121 632.014L815.785 621.35L805.121 610.686L794.457 621.35ZM746.468 594.69L783.793 632.014L794.457 621.35L757.132 584.026L746.468 594.69Z" fill="black"/>
<path d="M182.361 481.666L213.317 512.622C229.357 528.662 243.709 527.818 255.106 516.421C262.564 508.963 265.237 498.973 259.187 489.546C268.051 494.471 276.916 490.953 283.67 484.199C294.926 472.943 293.801 459.153 278.323 443.676L249.337 414.69L182.361 481.666ZM269.177 453.666C277.619 462.108 277.901 468.862 271.85 474.912C265.659 481.103 258.905 481.103 251.167 473.365L231.89 454.088L250.745 435.233L269.177 453.666ZM242.724 483.214C251.026 491.516 251.448 498.692 244.835 505.305C238.503 511.637 231.468 511.637 223.025 503.194L202.905 483.073L222.744 463.234L242.724 483.214ZM369.212 510.927L380.469 522.183L391.725 510.927L380.469 499.67L369.212 510.927ZM341.071 482.785L352.328 494.042L363.584 482.785L352.328 471.529L341.071 482.785ZM318.558 505.298L357.956 544.696L369.212 533.439L329.815 494.042L318.558 505.298ZM262.276 539.068L273.532 550.324L290.417 533.439L341.071 584.094L369.212 555.952L357.956 544.696L341.071 561.581L301.673 522.183L318.558 505.298L307.302 494.042L262.276 539.068ZM312.93 589.722L324.186 600.978L335.443 589.722L324.186 578.465L312.93 589.722ZM262.276 561.581L301.673 600.978L312.93 589.722L273.532 550.324L262.276 561.581ZM398.975 654.661C390.673 659.586 379.698 661.837 367.879 650.018C354.934 637.073 357.748 619.907 372.663 604.992C387.859 589.795 404.744 587.263 417.689 600.208C429.367 611.886 427.257 623.002 422.754 631.163L435.418 640.168C444.845 625.675 445.126 607.665 427.679 590.218C409.669 572.207 384.764 570.378 361.406 593.735C338.049 617.092 339.878 641.997 357.889 660.008C375.336 677.455 393.347 677.174 407.839 667.465L398.975 654.661ZM433.415 684.317C423.143 693.744 416.53 695.01 409.776 688.257L405.696 684.176L395.284 694.588L400.49 699.794C413.435 712.739 424.41 713.021 442.983 695.855C451.284 688.116 465.918 674.045 477.034 663.211L502.783 688.96L446.219 745.524L457.476 756.78L524.452 689.804L477.034 642.386C466.059 653.08 444.39 674.186 433.415 684.317ZM589.067 753.295L555.298 719.525L544.042 730.782L577.811 764.551L589.067 753.295ZM521.529 798.32L532.785 809.577L521.529 820.833L532.785 832.09L589.067 775.808L577.811 764.551L566.554 775.808L532.785 742.038L521.529 753.295L555.298 787.064L544.042 798.32L532.785 787.064L521.529 798.32ZM521.529 730.782L532.785 742.038L544.042 730.782L532.785 719.525L521.529 730.782ZM487.759 764.551L499.016 775.808L521.529 753.295L510.272 742.038L487.759 764.551ZM487.759 787.064L510.272 809.577L521.529 798.32L499.016 775.808L487.759 787.064Z" fill="black"/>
</g>
<defs>
<clipPath id="clip0_1401_3115">
<rect width="1000" height="1000" rx="500" fill="white"/>
</clipPath>
</defs>
</svg>
